<?xml version="1.0" encoding="UTF-8"?>
<svg version="1.1" xmlns="http://www.w3.org/2000/svg" width="512" height="512">
<path d="M0 0 C1.2516394 -0.00810448 1.2516394 -0.00810448 2.52856445 -0.01637268 C5.29023573 -0.02889288 8.05087118 -0.01234747 10.8125 0.00561523 C12.72916722 0.00546032 14.64583477 0.00397264 16.5625 0.00120544 C20.5808699 -0.00018002 24.59888352 0.01240418 28.6171875 0.03515625 C33.77248097 0.06354129 38.92718224 0.06080552 44.08251953 0.04806614 C48.04074171 0.04111689 51.9988266 0.04888961 55.95703125 0.06132317 C57.85806756 0.065845 59.75911858 0.06616809 61.66015625 0.06225777 C64.3154124 0.05935292 66.9698475 0.07581732 69.625 0.09765625 C70.41366455 0.0931546 71.2023291 0.08865295 72.01489258 0.08401489 C77.2670245 0.15592535 77.2670245 0.15592535 79.82421875 1.77696228 C80.8125 3.50170898 80.8125 3.50170898 80.8125 7.50170898 C89.3925 7.50170898 97.9725 7.50170898 106.8125 7.50170898 C107.1425 5.85170898 107.4725 4.20170898 107.8125 2.50170898 C111.02267075 0.36159515 111.84158926 0.25059221 115.53050995 0.24444008 C116.99449557 0.23476674 116.99449557 0.23476674 118.48805666 0.22489798 C120.1002412 0.22954379 120.1002412 0.22954379 121.74499512 0.23428345 C122.8847528 0.22975233 124.02451049 0.22522122 125.19880629 0.2205528 C129.03817708 0.20783887 132.87740729 0.20953367 136.71679688 0.21118164 C139.46111083 0.20629013 142.20541476 0.19845349 144.94972229 0.19082642 C151.64197261 0.1742 158.33418771 0.16871616 165.02645695 0.16760166 C170.46400844 0.16665212 175.90154827 0.16254657 181.33909607 0.15620041 C196.74535097 0.13858484 212.15157798 0.12936223 227.55784303 0.13086136 C228.38873042 0.13094127 229.2196178 0.13102118 230.07568359 0.13110352 C230.90758168 0.13118528 231.73947976 0.13126704 232.59658688 0.13135128 C246.08682485 0.13216465 259.57695128 0.113015 273.06715697 0.08482678 C286.9087963 0.05613167 300.75038118 0.04228457 314.59205103 0.04401433 C322.3671963 0.04467933 330.1422246 0.03913933 337.91734314 0.01765823 C344.53558314 -0.00050913 351.15365314 -0.00493761 357.77190721 0.00867708 C361.1506379 0.0152291 364.52877433 0.01309183 367.90751839 -0.00202942 C371.56531048 -0.01734459 375.22223304 -0.00826428 378.88000488 0.00723267 C379.95479457 -0.00305446 381.02958426 -0.01334159 382.13694334 -0.02394044 C383.11293375 -0.01474285 384.08892417 -0.00554526 385.09449005 0.00393105 C385.93926045 0.00349631 386.78403085 0.00306157 387.65440035 0.00261366 C389.8125 0.50170898 389.8125 0.50170898 391.58360583 2.34365451 C393.29908009 5.35618967 393.19313945 7.68681749 393.20018005 11.1439209 C393.20825836 12.1432426 393.20825836 12.1432426 393.21649987 13.16275263 C393.23080058 15.39376485 393.22367091 17.62418551 393.21655273 19.85522461 C393.22225518 21.45522031 393.22921895 23.05521194 393.23735046 24.65519714 C393.25530977 29.00019016 393.25410846 33.34498153 393.24840808 37.69000053 C393.24532061 41.31593297 393.25140365 44.94182642 393.25744683 48.56775331 C393.27149918 57.12015295 393.26992451 65.67245271 393.25854492 74.22485352 C393.24705907 83.05227052 393.26114553 91.87938389 393.2879414 100.70676088 C393.31007979 108.28308394 393.3167401 115.85931154 393.31086498 123.43566465 C393.3074902 127.96188852 393.3099451 132.48791766 393.32711601 137.01411438 C393.34255383 141.26923805 393.33866514 145.52391084 393.31981087 149.77901649 C393.31611635 151.34151942 393.31925853 152.90405551 393.32969666 154.46652794 C393.34285032 156.59804116 393.33141187 158.72804921 393.31370544 160.85949707 C393.31349616 162.05263268 393.31328688 163.24576828 393.31307125 164.47505951 C392.71056388 168.11805461 391.76051789 169.3348155 388.8125 171.50170898 C387.8225 171.50170898 386.8325 171.50170898 385.8125 171.50170898 C385.8125 177.44170898 385.8125 183.38170898 385.8125 189.50170898 C387.4625 189.83170898 389.1125 190.16170898 390.8125 190.50170898 C393.97128475 195.2398861 393.1463664 200.32409745 393.12817383 205.8984375 C393.12501611 207.9288512 393.14847175 209.95780374 393.17382812 211.98803711 C393.17447266 213.27000977 393.17511719 214.55198242 393.17578125 215.87280273 C393.18025269 217.63515259 393.18025269 217.63515259 393.18481445 219.43310547 C392.77849442 222.7819819 392.29086857 224.2265141 389.8125 226.50170898 C388.4925 226.50170898 387.1725 226.50170898 385.8125 226.50170898 C385.8125 233.10170898 385.8125 239.70170898 385.8125 246.50170898 C387.4625 246.83170898 389.1125 247.16170898 390.8125 247.50170898 C393.41198008 251.4009291 393.093436 254.66479366 393.07319641 259.18760681 C393.07702196 260.08572934 393.08084751 260.98385187 393.08478898 261.90919024 C393.09514129 264.9308927 393.0911226 267.95240593 393.0871582 270.97412109 C393.09150344 273.13553545 393.09668595 275.29694826 393.10264587 277.45835876 C393.11606727 283.33844473 393.11661107 289.21846655 393.11408257 295.09856486 C393.11301501 300.00189629 393.11789071 304.90521463 393.122688 309.80854326 C393.133794 321.37318589 393.13421441 332.93779603 393.12817383 344.50244141 C393.12213168 356.44545316 393.13444873 368.38834717 393.1557439 380.33133882 C393.17333832 390.57427217 393.17936468 400.81716797 393.17610615 411.06011587 C393.17428974 417.18257029 393.17696513 423.30494073 393.19082069 429.42738152 C393.20335934 435.18359696 393.20149255 440.93962835 393.18840981 446.69584084 C393.18603583 448.81145158 393.1888079 450.92707512 393.19703293 453.0426712 C393.20743272 455.92493943 393.19945431 458.80658233 393.1867218 461.68882751 C393.19409609 462.53113841 393.20147037 463.37344931 393.20906812 464.24128479 C393.18004628 467.35210269 393.1122763 469.90519212 391.70010918 472.71522576 C388.94979996 475.3181911 386.98293109 475.00305635 383.23602295 475.00507355 C382.56148748 475.01088731 381.88695201 475.01670107 381.19197607 475.02269101 C378.91506208 475.03737444 376.63921212 475.0233682 374.36230469 475.00964355 C372.72017742 475.01424921 371.07805426 475.02059986 369.43593979 475.02855253 C364.91057195 475.04531525 360.38553972 475.03696817 355.86017036 475.02460766 C350.98484092 475.01558774 346.10957074 475.02951164 341.23425293 475.04052734 C331.67841522 475.05834996 322.1227029 475.05445595 312.5668602 475.04287678 C304.80331134 475.03385742 297.03979771 475.03261196 289.27624512 475.03697205 C288.17292398 475.03758498 287.06960285 475.03819791 285.93284774 475.03882942 C283.69174352 475.04010827 281.45063932 475.04140512 279.20953512 475.04271978 C258.17556111 475.05413654 237.14165674 475.0409947 216.10769415 475.01951832 C198.04441746 475.00164635 179.98124358 475.00475015 161.91796875 475.02319336 C140.96125214 475.04458073 120.00459663 475.05303781 99.04787064 475.0407443 C96.81483206 475.03947006 94.58179348 475.03821257 92.34875488 475.03697205 C90.7005417 475.03604639 90.7005417 475.03604639 89.01903129 475.03510204 C81.26132988 475.03164273 73.5036671 475.03748997 65.74597168 475.04689026 C56.29689424 475.05808795 46.84794977 475.05511729 37.39888763 475.03376728 C32.57423581 475.02322674 27.74980601 475.01918593 22.92515564 475.03236389 C18.51355409 475.04423176 14.10238156 475.03781865 9.69081926 475.01645368 C8.08992836 475.01196368 6.48900164 475.01430719 4.88813353 475.02395684 C2.72122383 475.03602242 0.55580712 475.02374927 -1.61102295 475.00507355 C-2.8172871 475.00442414 -4.02355125 475.00377473 -5.26636887 475.00310564 C-8.1875 474.50170898 -8.1875 474.50170898 -10.0749346 472.95516825 C-11.61508996 469.55877605 -11.59993255 466.40103009 -11.56502342 462.74299622 C-11.56938374 461.95279709 -11.57374407 461.16259796 -11.57823652 460.3484534 C-11.58923849 457.68427876 -11.57874788 455.02061671 -11.56845093 452.35644531 C-11.57190554 450.43368418 -11.57666877 448.51092503 -11.58263266 446.58817005 C-11.59519933 441.29174297 -11.58894658 435.99547727 -11.57967401 430.69904947 C-11.57290699 424.99209383 -11.58335305 419.28516661 -11.59161377 413.57821655 C-11.60497844 402.39323809 -11.6020612 391.20831989 -11.59337585 380.02333903 C-11.58661045 370.93593395 -11.58567762 361.8485458 -11.5889473 352.76113892 C-11.589407 351.46951743 -11.58986669 350.17789594 -11.59034032 348.84713441 C-11.59129947 346.22352147 -11.5922721 343.59990853 -11.5932581 340.97629559 C-11.60157576 317.05655475 -11.59293885 293.13684823 -11.57723031 269.21711285 C-11.56299301 247.3715309 -11.56426687 225.52600141 -11.57861328 203.68041992 C-11.59466992 179.14851669 -11.60099595 154.61664716 -11.59177649 130.08473873 C-11.59082081 127.47058551 -11.5898777 124.85643228 -11.5889473 122.24227905 C-11.58848447 120.95594647 -11.58802164 119.66961388 -11.58754479 118.34430152 C-11.58495066 109.26408327 -11.58933499 100.18388359 -11.59638596 91.10366821 C-11.60478549 80.04326806 -11.60255346 68.9829318 -11.58654372 57.922539 C-11.57864015 52.27553682 -11.57560485 46.62864133 -11.58549118 40.98163986 C-11.59439548 35.81760168 -11.58957598 30.6537696 -11.57355852 25.48975027 C-11.57019256 23.61632726 -11.5719452 21.74288704 -11.57918589 19.86947501 C-11.58824177 17.33287252 -11.5790202 14.79698615 -11.56502342 12.26042175 C-11.57204692 11.52444822 -11.57907042 10.78847469 -11.58630675 10.03019893 C-11.55219024 6.95977322 -11.33635652 4.78303579 -9.88924658 2.04811478 C-7.04971484 -0.53221556 -3.63978121 -0.04461883 0 0 Z " fill="#E2E3E3" transform="translate(65.1875,18.498291015625)"/>
<path d="M0 0 C1.18142578 -0.01891296 1.18142578 -0.01891296 2.38671875 -0.03820801 C3.22847656 -0.03011108 4.07023438 -0.02201416 4.9375 -0.01367188 C6.24654297 -0.01941223 6.24654297 -0.01941223 7.58203125 -0.02526855 C9.42449092 -0.02798678 11.26698924 -0.02063182 13.109375 -0.00390625 C15.92795934 0.01750565 18.74399485 -0.00370989 21.5625 -0.02929688 C23.35417229 -0.02665358 25.14584299 -0.02152857 26.9375 -0.01367188 C27.77925781 -0.0217688 28.62101563 -0.02986572 29.48828125 -0.03820801 C33.18346651 0.02094671 35.32308207 0.12065326 38.47558594 2.15722656 C40.37855678 5.22969185 40.39609588 7.21199664 40.328125 10.81445312 C40.31523437 12.01972656 40.30234375 13.225 40.2890625 14.46679688 C40.23878906 16.34818359 40.23878906 16.34818359 40.1875 18.26757812 C40.16945313 19.53730469 40.15140625 20.80703125 40.1328125 22.11523438 C40.08567153 25.2501089 40.01987664 28.38346373 39.9375 31.51757812 C41.26140747 31.478302 41.26140747 31.478302 42.61206055 31.43823242 C45.9016158 31.35277538 49.18998422 31.29022068 52.48022461 31.24291992 C53.90131291 31.21784665 55.32227313 31.18377814 56.74291992 31.14038086 C58.79117462 31.07939955 60.83771883 31.0513005 62.88671875 31.02929688 C64.11737061 31.00311279 65.34802246 30.97692871 66.6159668 30.94995117 C71.06390486 31.71007289 72.23890467 32.90780002 74.9375 36.51757812 C75.65380454 39.98285345 75.56966092 43.38017429 75.50512695 46.9074707 C75.50622215 48.47401398 75.50622215 48.47401398 75.50733948 50.07220459 C75.50385994 53.51937039 75.46497912 56.96518003 75.42578125 60.41210938 C75.41645449 62.80392214 75.40933773 65.19574446 75.40434265 67.58757019 C75.38526239 73.87932764 75.33615152 80.17050693 75.28082275 86.46203613 C75.22965316 92.88346536 75.20683342 99.30498811 75.18164062 105.7265625 C75.12803481 118.32381421 75.04367125 130.9206654 74.9375 143.51757812 C76.58298828 143.43056641 76.58298828 143.43056641 78.26171875 143.34179688 C79.71610314 143.29488125 81.17053374 143.24938302 82.625 143.20507812 C83.34623047 143.16318359 84.06746094 143.12128906 84.81054688 143.078125 C89.00318031 142.98240278 90.50342673 143.18345963 93.95703125 145.84179688 C95.9375 148.51757812 95.9375 148.51757812 95.9375 151.64257812 C94.91979286 154.56848615 94.29930983 155.62168873 91.9375 157.51757812 C88.97306338 157.81693706 86.21775603 157.93069976 83.25160217 157.9119873 C82.35347964 157.91807841 81.45535711 157.92416951 80.53001875 157.93044519 C77.50824809 157.94714862 74.48689544 157.94228893 71.46508789 157.9375 C69.30367085 157.94483605 67.14225774 157.95342091 64.98085022 157.96316528 C59.10074702 157.98543843 53.22078371 157.98830907 47.34064412 157.98641777 C42.43730524 157.98629834 37.5339963 157.99485119 32.63066572 158.00319529 C21.06601282 158.02245013 9.50143212 158.02530554 -2.06323242 158.01855469 C-14.00632199 158.01191141 -25.94910289 158.03478523 -37.89212984 158.07186842 C-48.1350737 158.10252258 -58.37791805 158.11393012 -68.62090689 158.1100316 C-74.74342324 158.10795974 -80.86569947 158.11351087 -86.98817253 158.13792419 C-92.74449277 158.16011803 -98.50030972 158.15837474 -104.25663185 158.13799667 C-106.37224591 158.13457361 -108.48789337 158.13973109 -110.60346222 158.15398026 C-113.48610831 158.17205992 -116.36702641 158.15950794 -119.24961853 158.13903809 C-120.09192943 158.15155593 -120.93424033 158.16407378 -121.8020758 158.17697096 C-125.76948938 158.11633792 -127.642037 157.90387464 -130.61330509 155.17404938 C-132.0625 152.51757812 -132.0625 152.51757812 -132.0625 149.39257812 C-130.8682489 145.95910621 -130.23063607 145.23785583 -127.0625 143.51757812 C-124.22849714 143.3041743 -121.63233831 143.23292822 -118.8125 143.33007812 C-118.06742188 143.34361328 -117.32234375 143.35714844 -116.5546875 143.37109375 C-114.72364584 143.40630609 -112.89297831 143.46010962 -111.0625 143.51757812 C-111.07138245 142.59938293 -111.08026489 141.68118774 -111.0894165 140.73516846 C-111.16955421 132.08337307 -111.23046026 123.43170228 -111.26974869 114.77962112 C-111.29062638 110.33143536 -111.31894702 105.88355618 -111.36425781 101.43554688 C-111.40770957 97.14318579 -111.43163574 92.85111965 -111.44200897 88.5585556 C-111.4494016 86.92065538 -111.46383775 85.28277135 -111.48542023 83.64499664 C-111.51444647 81.35119203 -111.51845651 79.05860706 -111.51660156 76.76464844 C-111.52548401 75.45892883 -111.53436646 74.15320923 -111.54351807 72.80792236 C-111.0625 69.51757812 -111.0625 69.51757812 -109.24035645 67.09301758 C-106.09466834 64.81745844 -103.73785009 65.06388386 -99.890625 65.12695312 C-98.8669986 65.13544281 -98.8669986 65.13544281 -97.82269287 65.144104 C-95.65190238 65.16642176 -93.48278794 65.21660305 -91.3125 65.26757812 C-89.8372635 65.28764937 -88.36200101 65.30589906 -86.88671875 65.32226562 C-83.27810499 65.36626932 -79.67046619 65.43526229 -76.0625 65.51757812 C-76.08344727 64.62973633 -76.10439453 63.74189453 -76.12597656 62.82714844 C-76.19425677 59.52463357 -76.2443487 56.22287143 -76.28222656 52.91992188 C-76.30230982 51.49206691 -76.32958252 50.06429388 -76.36425781 48.63671875 C-76.41292669 46.58117444 -76.43549967 44.52671957 -76.453125 42.47070312 C-76.47407227 41.23481445 -76.49501953 39.99892578 -76.51660156 38.72558594 C-76.0625 35.51757812 -76.0625 35.51757812 -74.5847168 33.1184082 C-70.94966568 30.81127141 -67.49019168 30.92582568 -63.31640625 30.95117188 C-62.46827866 30.9449733 -61.62015106 30.93877472 -60.74632263 30.93238831 C-58.95516099 30.92529437 -57.16393336 30.92845677 -55.37280273 30.94116211 C-52.63726928 30.95501599 -49.90516578 30.92096953 -47.16992188 30.8828125 C-45.4270825 30.88186113 -43.68423885 30.88372109 -41.94140625 30.88867188 C-41.1266835 30.87541367 -40.31196075 30.86215546 -39.47254944 30.84849548 C-35.59705218 30.9117798 -33.44400006 31.29597057 -30.03808594 33.27441406 C-26.94513065 38.35187551 -27.44646322 43.20908915 -27.57421875 49.03710938 C-27.58129349 50.25081711 -27.58836823 51.46452484 -27.59565735 52.7150116 C-27.62362111 56.58733024 -27.68636909 60.45819729 -27.75 64.33007812 C-27.77508004 66.95701035 -27.79789371 69.58396527 -27.81835938 72.2109375 C-27.87345525 78.64704275 -27.95974677 85.08206442 -28.0625 91.51757812 C-21.4625 91.51757812 -14.8625 91.51757812 -8.0625 91.51757812 C-8.0939209 87.5957666 -8.0939209 87.5957666 -8.12597656 83.59472656 C-8.19222154 74.96143453 -8.2364254 66.32813133 -8.26974869 57.69465256 C-8.29063361 52.45954711 -8.31896796 47.22470181 -8.36425781 41.98974609 C-8.407683 36.93877858 -8.43163029 31.88806146 -8.44200897 26.83692169 C-8.44940631 24.90875557 -8.46385144 22.98060332 -8.48542023 21.05254364 C-8.51441007 18.35406253 -8.51845787 15.6566193 -8.51660156 12.95800781 C-8.53098267 12.15887466 -8.54536377 11.35974152 -8.56018066 10.53639221 C-8.53399289 7.02384856 -8.34964205 4.92134293 -6.2880249 2.0223999 C-3.91451509 0.41751593 -2.82431297 0.01303275 0 0 Z " fill="#225164" transform="translate(274.0625,57.482421875)"/>
<path d="M0 0 C1.2516394 -0.00810448 1.2516394 -0.00810448 2.52856445 -0.01637268 C5.29023573 -0.02889288 8.05087118 -0.01234747 10.8125 0.00561523 C12.72916722 0.00546032 14.64583477 0.00397264 16.5625 0.00120544 C20.5808699 -0.00018002 24.59888352 0.01240418 28.6171875 0.03515625 C33.77248097 0.06354129 38.92718224 0.06080552 44.08251953 0.04806614 C48.04074171 0.04111689 51.9988266 0.04888961 55.95703125 0.06132317 C57.85806756 0.065845 59.75911858 0.06616809 61.66015625 0.06225777 C64.3154124 0.05935292 66.9698475 0.07581732 69.625 0.09765625 C70.41366455 0.0931546 71.2023291 0.08865295 72.01489258 0.08401489 C77.30431032 0.15643585 77.30431032 0.15643585 79.79296875 1.84727478 C81.46684067 4.5635338 81.31054988 6.38889725 80.8125 9.50170898 C79.1625 11.15170898 77.5125 12.80170898 75.8125 14.50170898 C51.7225 14.50170898 27.6325 14.50170898 2.8125 14.50170898 C2.8125 161.68170898 2.8125 308.86170898 2.8125 460.50170898 C126.8925 460.50170898 250.9725 460.50170898 378.8125 460.50170898 C378.65406055 391.57049448 378.65406055 391.57049448 378.45214844 322.6394043 C378.43408203 309.32739258 378.43408203 309.32739258 378.4307251 303.10150146 C378.42698856 298.73992831 378.41195955 294.37854861 378.39019775 290.01702881 C378.3628341 284.45946665 378.35452174 278.90218724 378.3602109 273.34456396 C378.35902065 271.30128954 378.35104566 269.2580056 378.33563948 267.21478891 C378.31583595 264.46121083 378.32050433 261.708741 378.33148193 258.95513916 C378.31983128 258.14992199 378.30818062 257.34470482 378.29617691 256.51508713 C378.33419161 252.98399909 378.52223321 250.90273762 380.61990738 248.0046196 C383.82250211 245.80940396 386.02953087 245.95145893 389.8125 246.50170898 C392.6616214 248.99672963 392.82324335 250.61317221 393.19002342 254.41854858 C393.20654157 256.04823619 393.20640956 257.67814153 393.19345093 259.30786133 C393.1981309 260.20683828 393.20281087 261.10581524 393.20763266 262.03203392 C393.21961887 265.05072057 393.2101112 268.06895629 393.20068359 271.08764648 C393.20474768 273.24920924 393.21008864 275.41076993 393.21661377 277.57232666 C393.23031251 283.44825566 393.22497811 289.32402698 393.21547651 295.1999588 C393.20789319 301.34270154 393.21492183 307.48543057 393.21963501 313.62817383 C393.22509643 323.94476756 393.21789079 334.2612969 393.20361328 344.57788086 C393.18728607 356.51353553 393.1925743 368.44903648 393.2090925 380.38468742 C393.22269633 390.62340043 393.22463242 400.86206709 393.21677649 411.10078621 C393.21209392 417.21986537 393.21149118 423.33887223 393.22138596 429.45794678 C393.23003727 435.21008264 393.2240672 440.96201986 393.20670319 446.71413422 C393.20272854 448.82812927 393.20388903 450.94214097 393.21049118 453.05612946 C393.21865805 455.93616599 393.20844386 458.81556125 393.19345093 461.69555664 C393.20014309 462.53718542 393.20683526 463.3788142 393.21373022 464.24594688 C393.1822185 467.3549061 393.11145612 469.90696445 391.6999346 472.71505117 C388.94981931 475.31832811 386.98297759 475.00305632 383.23602295 475.00507355 C382.56148748 475.01088731 381.88695201 475.01670107 381.19197607 475.02269101 C378.91506208 475.03737444 376.63921212 475.0233682 374.36230469 475.00964355 C372.72017742 475.01424921 371.07805426 475.02059986 369.43593979 475.02855253 C364.91057195 475.04531525 360.38553972 475.03696817 355.86017036 475.02460766 C350.98484092 475.01558774 346.10957074 475.02951164 341.23425293 475.04052734 C331.67841522 475.05834996 322.1227029 475.05445595 312.5668602 475.04287678 C304.80331134 475.03385742 297.03979771 475.03261196 289.27624512 475.03697205 C288.17292398 475.03758498 287.06960285 475.03819791 285.93284774 475.03882942 C283.69174352 475.04010827 281.45063932 475.04140512 279.20953512 475.04271978 C258.17556111 475.05413654 237.14165674 475.0409947 216.10769415 475.01951832 C198.04441746 475.00164635 179.98124358 475.00475015 161.91796875 475.02319336 C140.96125214 475.04458073 120.00459663 475.05303781 99.04787064 475.0407443 C96.81483206 475.03947006 94.58179348 475.03821257 92.34875488 475.03697205 C90.7005417 475.03604639 90.7005417 475.03604639 89.01903129 475.03510204 C81.26132988 475.03164273 73.5036671 475.03748997 65.74597168 475.04689026 C56.29689424 475.05808795 46.84794977 475.05511729 37.39888763 475.03376728 C32.57423581 475.02322674 27.74980601 475.01918593 22.92515564 475.03236389 C18.51355409 475.04423176 14.10238156 475.03781865 9.69081926 475.01645368 C8.08992836 475.01196368 6.48900164 475.01430719 4.88813353 475.02395684 C2.72122383 475.03602242 0.55580712 475.02374927 -1.61102295 475.00507355 C-2.8172871 475.00442414 -4.02355125 475.00377473 -5.26636887 475.00310564 C-8.1875 474.50170898 -8.1875 474.50170898 -10.0749346 472.95516825 C-11.61508996 469.55877605 -11.59993255 466.40103009 -11.56502342 462.74299622 C-11.56938374 461.95279709 -11.57374407 461.16259796 -11.57823652 460.3484534 C-11.58923849 457.68427876 -11.57874788 455.02061671 -11.56845093 452.35644531 C-11.57190554 450.43368418 -11.57666877 448.51092503 -11.58263266 446.58817005 C-11.59519933 441.29174297 -11.58894658 435.99547727 -11.57967401 430.69904947 C-11.57290699 424.99209383 -11.58335305 419.28516661 -11.59161377 413.57821655 C-11.60497844 402.39323809 -11.6020612 391.20831989 -11.59337585 380.02333903 C-11.58661045 370.93593395 -11.58567762 361.8485458 -11.5889473 352.76113892 C-11.589407 351.46951743 -11.58986669 350.17789594 -11.59034032 348.84713441 C-11.59129947 346.22352147 -11.5922721 343.59990853 -11.5932581 340.97629559 C-11.60157576 317.05655475 -11.59293885 293.13684823 -11.57723031 269.21711285 C-11.56299301 247.3715309 -11.56426687 225.52600141 -11.57861328 203.68041992 C-11.59466992 179.14851669 -11.60099595 154.61664716 -11.59177649 130.08473873 C-11.59082081 127.47058551 -11.5898777 124.85643228 -11.5889473 122.24227905 C-11.58848447 120.95594647 -11.58802164 119.66961388 -11.58754479 118.34430152 C-11.58495066 109.26408327 -11.58933499 100.18388359 -11.59638596 91.10366821 C-11.60478549 80.04326806 -11.60255346 68.9829318 -11.58654372 57.922539 C-11.57864015 52.27553682 -11.57560485 46.62864133 -11.58549118 40.98163986 C-11.59439548 35.81760168 -11.58957598 30.6537696 -11.57355852 25.48975027 C-11.57019256 23.61632726 -11.5719452 21.74288704 -11.57918589 19.86947501 C-11.58824177 17.33287252 -11.5790202 14.79698615 -11.56502342 12.26042175 C-11.57204692 11.52444822 -11.57907042 10.78847469 -11.58630675 10.03019893 C-11.55219024 6.95977322 -11.33635652 4.78303579 -9.88924658 2.04811478 C-7.04971484 -0.53221556 -3.63978121 -0.04461883 0 0 Z " fill="#215063" transform="translate(65.1875,18.498291015625)"/>
<path d="M0 0 C17.98384458 -0.74211188 36.56809669 5.3868555 49.90234375 17.5703125 C51.79558872 19.39962402 53.59486199 21.27705831 55.40234375 23.1953125 C56.52576172 24.38253906 56.52576172 24.38253906 57.671875 25.59375 C70.62624271 40.50489601 74.77317261 59.30873531 73.66113281 78.62255859 C71.80354867 97.0897489 61.08028508 114.09466265 47.2890625 126.02734375 C29.86323309 139.11440102 10.81201887 142.13623216 -10.59765625 140.1953125 C-28.33039096 137.33120181 -43.90974292 125.17383954 -54.59765625 111.1953125 C-65.89865474 95.30154369 -69.36947401 74.92133046 -66.19921875 55.79101562 C-61.78253747 36.61242653 -50.11030429 20.7567016 -33.59765625 10.1953125 C-22.70154303 3.88994749 -12.42803187 0.93443849 0 0 Z " fill="#235264" transform="translate(339.59765625,280.8046875)"/>
<path d="M0 0 C1.14061211 -0.00623996 2.28122422 -0.01247993 3.45640033 -0.01890898 C7.29283237 -0.03491184 11.12863546 -0.02220561 14.96507263 -0.00964355 C17.709542 -0.01286022 20.45398434 -0.02203694 23.19844055 -0.03088379 C29.88726365 -0.04868637 36.57590738 -0.04482153 43.26473755 -0.03323323 C48.69941459 -0.02420673 54.1340413 -0.02297149 59.56872368 -0.02732849 C60.72810016 -0.02824789 60.72810016 -0.02824789 61.9108984 -0.02918586 C63.48095808 -0.03046473 65.05101775 -0.03176159 66.62107741 -0.03307623 C81.34911125 -0.04448692 96.07704555 -0.03136028 110.80506306 -0.00987476 C123.44975801 0.00800023 136.09430611 0.0048898 148.73899841 -0.0135498 C163.4151808 -0.03494181 178.09127594 -0.04339197 192.76747173 -0.03110075 C194.33151208 -0.02982652 195.89555244 -0.02856904 197.45959282 -0.02732849 C198.61396984 -0.02640284 198.61396984 -0.02640284 199.7916676 -0.02545848 C205.22201925 -0.02200082 210.65231567 -0.02784278 216.08265877 -0.0372467 C222.69723336 -0.04844941 229.31161802 -0.04546316 235.92617077 -0.02412373 C239.30286996 -0.01359006 242.6789888 -0.01167257 246.05572701 -0.02272034 C249.71130006 -0.03358126 253.36596957 -0.02002566 257.02148438 0 C258.63264573 -0.01338433 258.63264573 -0.01338433 260.2763558 -0.02703905 C261.25172952 -0.01660806 262.22710323 -0.00617707 263.23203373 0.00457001 C264.49837622 0.00554412 264.49837622 0.00554412 265.79030138 0.00653791 C267.94725037 0.50793457 267.94725037 0.50793457 269.71818161 2.35022926 C271.43404503 5.36253234 271.32788988 7.69307601 271.33493042 11.15014648 C271.34300873 12.14946819 271.34300873 12.14946819 271.35125023 13.16897821 C271.36555095 15.39999044 271.35842128 17.63041109 271.3513031 19.8614502 C271.35700554 21.4614459 271.36396931 23.06143753 271.37210083 24.66142273 C271.39006014 29.00641574 271.38885883 33.35120712 271.38315845 37.69622612 C271.38007098 41.32215855 271.38615402 44.94805201 271.39219719 48.5739789 C271.40624954 57.12637853 271.40467487 65.67867829 271.39329529 74.2310791 C271.38180944 83.05849611 271.39589589 91.88560947 271.42269176 100.71298647 C271.44483015 108.28930952 271.45149047 115.86553713 271.44561535 123.44189024 C271.44224057 127.96811411 271.44469547 132.49414325 271.46186638 137.02033997 C271.4773042 141.27546364 271.47341551 145.53013643 271.45456123 149.78524208 C271.45086672 151.347745 271.4540089 152.9102811 271.46444702 154.47275352 C271.47760069 156.60426674 271.46616224 158.73427479 271.44845581 160.86572266 C271.44824653 162.05885826 271.44803724 163.25199387 271.44782162 164.4812851 C270.84358834 168.13471569 269.92688825 169.35824787 266.94725037 171.50793457 C263.55288354 171.44838428 261.08987678 171.29994712 258.25495434 169.33491802 C256.3421994 166.66262239 256.57846395 164.60400758 256.58648682 161.33869934 C256.58030083 159.401465 256.58030083 159.401465 256.57398987 157.4250946 C256.58460737 155.99087316 256.5955118 154.55665383 256.60667419 153.12243652 C256.60752026 151.6146242 256.60704572 150.10681063 256.60534668 148.59899902 C256.60448451 144.50209202 256.622146 140.40544751 256.64306855 136.30860162 C256.66179849 132.02847635 256.66358288 127.74834535 256.66714478 123.46818542 C256.67647609 115.36151226 256.70110454 107.2549602 256.73119324 99.1483404 C256.76470349 89.91992661 256.78121476 80.69150709 256.79627955 71.46304762 C256.82765317 52.47794123 256.88043474 33.49294763 256.94725037 14.50793457 C256.38380535 14.50907373 255.82036033 14.51021289 255.23984122 14.51138657 C221.86285446 14.5784867 188.48588458 14.62997698 155.10884552 14.66113056 C151.1033202 14.66488278 147.09779501 14.66876574 143.0922699 14.67272949 C141.89610254 14.67390989 141.89610254 14.67390989 140.67577019 14.67511413 C127.75509811 14.68817639 114.83446598 14.71183473 101.91381761 14.73939296 C88.66101536 14.76742437 75.40823406 14.78410603 62.15540338 14.79020005 C53.97436421 14.79432121 45.79343795 14.80734841 37.61243352 14.83168397 C31.34455621 14.84938156 25.07676539 14.85130592 18.8088665 14.84725761 C16.233673 14.84808554 13.65847538 14.85408713 11.08330727 14.86555099 C7.57691883 14.8803997 4.0710199 14.87691577 0.56462097 14.86869812 C-0.97622677 14.88180591 -0.97622677 14.88180591 -2.54820275 14.8951785 C-3.48623357 14.88920535 -4.42426438 14.88323221 -5.39072037 14.87707806 C-6.20028411 14.87821722 -7.00984786 14.87935638 -7.84394383 14.88053006 C-10.65038672 14.40712133 -12.00518528 13.46376276 -14.05274963 11.50793457 C-15.05274963 8.07043457 -15.05274963 8.07043457 -15.05274963 4.50793457 C-11.68073419 -1.13502735 -5.83213359 -0.04854986 0 0 Z " fill="#215063" transform="translate(187.05274963378906,18.4920654296875)"/>
<path d="M0 0 C-0.0030162 0.70886353 -0.00603241 1.41772705 -0.00914001 2.14807129 C-0.03146432 8.85650959 -0.0200473 15.5639653 0.02846622 22.27228546 C0.05223517 25.72056409 0.06334397 29.1678802 0.04467773 32.61621094 C0.02374757 36.58840781 0.05939561 40.55916556 0.09765625 44.53125 C0.08340103 45.75863892 0.06914581 46.98602783 0.05445862 48.25061035 C0.14916589 53.88969312 0.30212562 57.95233311 4.0625 62.34179688 C5.35151373 63.58599893 6.66478821 64.80551072 8 66 C9.28009397 67.30719899 10.55467829 68.61981391 11.82397461 69.9375 C13.18086633 71.29423648 14.54041373 72.64832118 15.90234375 74 C16.6249086 74.7211499 17.34747345 75.4422998 18.0919342 76.18530273 C20.37142604 78.45925415 22.6543924 80.72967954 24.9375 83 C26.49567506 84.55315235 28.05361993 86.10653567 29.61132812 87.66015625 C33.40489759 91.44277586 37.20131615 95.2225169 41 99 C37.68027539 102.42075367 35.0183599 104.79294222 30.625 106.6875 C29.73039062 107.08324219 28.83578125 107.47898437 27.9140625 107.88671875 C14.30785735 113.08479981 -2.5765849 113.33660877 -16.06640625 107.5390625 C-20.76622171 105.07338035 -24.93035742 102.41151556 -29 99 C-29.84304688 98.30390625 -30.68609375 97.6078125 -31.5546875 96.890625 C-41.84213049 87.57251554 -48.59907277 74.04336245 -49.37109375 60.1171875 C-49.78700608 42.41911154 -45.81769823 29.12202438 -33.82421875 15.53515625 C-25.01220709 6.87124562 -12.51095971 -0.09341378 0 0 Z " fill="#FDD068" transform="translate(336,296)"/>
<path d="M0 0 C6.6 0 13.2 0 20 0 C20 42.57 20 85.14 20 129 C13.4 129 6.8 129 0 129 C0 86.43 0 43.86 0 0 Z " fill="#268DB7" transform="translate(280,72)"/>
<path d="M0 0 C6.93 0 13.86 0 21 0 C21 32.34 21 64.68 21 98 C14.07 98 7.14 98 0 98 C0 65.66 0 33.32 0 0 Z " fill="#2FA9DB" transform="translate(314,103)"/>
<path d="M0 0 C1.1257695 -0.01272446 2.251539 -0.02544891 3.41142273 -0.03855896 C4.64218536 -0.03203308 5.872948 -0.0255072 7.14100647 -0.01878357 C8.44053757 -0.02739914 9.74006866 -0.03601471 11.07897949 -0.04489136 C14.64108158 -0.06739496 18.20273956 -0.06444351 21.76488566 -0.05556989 C24.73958367 -0.05045968 27.71419824 -0.05775284 30.68888766 -0.06504196 C37.70718113 -0.08204426 44.72525719 -0.07847221 51.74354553 -0.06175232 C58.98168291 -0.04483153 66.21921719 -0.06066361 73.45728868 -0.0929752 C79.67400191 -0.11967496 85.89052744 -0.1269461 92.10729223 -0.11846012 C95.81927312 -0.11353179 99.53089115 -0.11574078 103.24282646 -0.13624763 C107.38244624 -0.15802233 111.52092338 -0.13920212 115.66053772 -0.11643982 C116.88927612 -0.12813202 118.11801453 -0.13982422 119.38398743 -0.15187073 C128.62501577 -0.04825854 128.62501577 -0.04825854 131.73062134 2.89395142 C133.46546936 5.5146637 133.46546936 5.5146637 134.02796936 8.0771637 C133.27882845 11.32344097 132.03616228 12.42636831 129.46546936 14.5146637 C126.87610626 15.01802826 126.87610626 15.01802826 123.88624573 15.02259827 C122.75061691 15.03387756 121.6149881 15.04515686 120.44494629 15.05677795 C119.20326187 15.04868103 117.96157745 15.04058411 116.68226624 15.03224182 C114.71592979 15.04275574 114.71592979 15.04275574 112.70986938 15.05348206 C109.11682655 15.0717142 105.52424324 15.06464871 101.9311924 15.05196571 C98.17075488 15.04183732 94.41035666 15.05123094 90.6499176 15.05751038 C84.33494504 15.06478728 78.02015961 15.05519808 71.70521545 15.03614807 C64.40464453 15.01437907 57.10452042 15.02143043 49.80396032 15.04345369 C43.53546496 15.06160659 37.2671041 15.06416661 30.99859095 15.05369902 C27.2548455 15.04746341 23.51131007 15.04663009 19.76757812 15.05984497 C15.59434045 15.07354701 11.42187287 15.05455574 7.24867249 15.03224182 C5.38614586 15.04438721 5.38614586 15.04438721 3.48599243 15.05677795 C2.35036362 15.04549866 1.2147348 15.03421936 0.04469299 15.02259827 C-1.43528797 15.02033611 -1.43528797 15.02033611 -2.94516754 15.01802826 C-6.27763776 14.37020586 -7.46924283 13.16079995 -9.53453064 10.5146637 C-10.03453064 7.5146637 -10.03453064 7.5146637 -9.53453064 4.5146637 C-6.60780465 0.77176092 -4.69306712 0.01346966 0 0 Z " fill="#235164" transform="translate(108.53453063964844,419.48533630371094)"/>
<path d="M0 0 C1.28992355 -0.00861557 2.57984711 -0.01723114 3.90885925 -0.02610779 C7.43991281 -0.04858211 10.97051774 -0.04566715 14.50161552 -0.03678632 C17.45151062 -0.03167153 20.40132177 -0.03897284 23.35120821 -0.04625839 C30.31054828 -0.06325072 37.26966904 -0.0596979 44.22900391 -0.04296875 C51.40524789 -0.02604114 58.58088388 -0.04189165 65.75706148 -0.07419163 C71.92284025 -0.10089092 78.08842978 -0.10816289 84.25426054 -0.09967655 C87.93492855 -0.09474904 91.61523063 -0.09695303 95.29585266 -0.11746407 C99.39944408 -0.13923837 103.50188283 -0.12041915 107.60546875 -0.09765625 C109.43219368 -0.11519455 109.43219368 -0.11519455 111.29582214 -0.13308716 C120.4558862 -0.02947762 120.4558862 -0.02947762 123.56115723 2.91273499 C125.30273438 5.53344727 125.30273438 5.53344727 125.86523438 8.09594727 C125.11609346 11.34222454 123.87342729 12.44515188 121.30273438 14.53344727 C118.71337128 15.03681183 118.71337128 15.03681183 115.72351074 15.04138184 C114.58788193 15.05266113 113.45225311 15.06394043 112.2822113 15.07556152 C111.04052689 15.0674646 109.79884247 15.05936768 108.51953125 15.05102539 C106.55319481 15.06153931 106.55319481 15.06153931 104.5471344 15.07226562 C100.95409157 15.09049777 97.36150826 15.08343227 93.76845741 15.07074928 C90.0080199 15.06062089 86.24762168 15.0700145 82.48718262 15.07629395 C76.17221005 15.08357085 69.85742462 15.07398165 63.54248047 15.05493164 C56.24190954 15.03316264 48.94178544 15.040214 41.64122534 15.06223726 C35.37272998 15.08039016 29.10436912 15.08295018 22.83585596 15.07248259 C19.09211052 15.06624698 15.34857509 15.06541366 11.60484314 15.07862854 C7.43160547 15.09233058 3.25913788 15.07333931 -0.9140625 15.05102539 C-2.77658913 15.06317078 -2.77658913 15.06317078 -4.67674255 15.07556152 C-5.81237137 15.06428223 -6.94800018 15.05300293 -8.11804199 15.04138184 C-9.59802296 15.03911968 -9.59802296 15.03911968 -11.10790253 15.03681183 C-14.44042419 14.38897943 -15.62912672 13.17709889 -17.69726562 10.53344727 C-18.25976562 7.53344727 -18.25976562 7.53344727 -17.69726562 4.53344727 C-13.13840194 -1.10541848 -6.62805646 -0.03551758 0 0 Z " fill="#265366" transform="translate(116.697265625,343.466552734375)"/>
<path d="M0 0 C1.28992355 -0.00861557 2.57984711 -0.01723114 3.90885925 -0.02610779 C7.43991281 -0.04858211 10.97051774 -0.04566715 14.50161552 -0.03678632 C17.45151062 -0.03167153 20.40132177 -0.03897284 23.35120821 -0.04625839 C30.31054828 -0.06325072 37.26966904 -0.0596979 44.22900391 -0.04296875 C51.40524789 -0.02604114 58.58088388 -0.04189165 65.75706148 -0.07419163 C71.92284025 -0.10089092 78.08842978 -0.10816289 84.25426054 -0.09967655 C87.93492855 -0.09474904 91.61523063 -0.09695303 95.29585266 -0.11746407 C99.39944408 -0.13923837 103.50188283 -0.12041915 107.60546875 -0.09765625 C109.43219368 -0.11519455 109.43219368 -0.11519455 111.29582214 -0.13308716 C120.4558862 -0.02947762 120.4558862 -0.02947762 123.56115723 2.91273499 C125.30273438 5.53344727 125.30273438 5.53344727 125.86523438 8.09594727 C125.1157813 11.34357724 123.87600745 12.44557674 121.30273438 14.53344727 C118.69496059 15.03681183 118.69496059 15.03681183 115.67881775 15.04138184 C113.96058556 15.05830078 113.96058556 15.05830078 112.2076416 15.07556152 C110.9550354 15.0674646 109.7024292 15.05936768 108.41186523 15.05102539 C107.07625058 15.05644689 105.74064191 15.06356971 104.40504456 15.07226562 C100.7810794 15.09049736 97.15756985 15.0834329 93.53359675 15.07074928 C89.74199492 15.06062278 85.9504321 15.07001378 82.15882874 15.07629395 C75.79258213 15.08357051 69.42652116 15.0739816 63.06030273 15.05493164 C55.69722918 15.03315337 48.33459849 15.04022087 40.97153562 15.06223726 C34.65125195 15.08037998 28.33110171 15.08295546 22.01080042 15.07248259 C18.23522941 15.06624257 14.45986669 15.06542594 10.68430901 15.07862854 C7.13582142 15.09017055 3.58790589 15.08219256 0.03948021 15.05905151 C-1.88623897 15.05122674 -3.81200645 15.0631338 -5.73770142 15.07556152 C-7.45170387 15.05864258 -7.45170387 15.05864258 -9.20033264 15.04138184 C-10.19528275 15.03987373 -11.19023287 15.03836563 -12.21533298 15.03681183 C-14.69726562 14.53344727 -14.69726562 14.53344727 -16.50957394 12.68920135 C-18.15478321 9.70301677 -18.25663289 7.88965085 -17.69726562 4.53344727 C-13.14627222 -1.10833789 -6.62300184 -0.03549049 0 0 Z " fill="#275567" transform="translate(116.697265625,305.466552734375)"/>
<path d="M0 0 C1.14129364 -0.00852997 2.28258728 -0.01705994 3.45846558 -0.02584839 C4.71669128 -0.02494202 5.97491699 -0.02403564 7.27127075 -0.02310181 C8.60496397 -0.02908381 9.93865371 -0.03588859 11.27233887 -0.04345703 C14.9004909 -0.06115889 18.52854867 -0.06581419 22.15673971 -0.0670886 C25.18360302 -0.06898548 28.21044426 -0.07634066 31.23729908 -0.08343279 C38.37819159 -0.09973065 45.51903366 -0.10460052 52.65994263 -0.10317993 C60.02974213 -0.10197847 67.39924879 -0.12307779 74.76897418 -0.15466726 C81.09260561 -0.18080832 87.41614127 -0.19154813 93.73982632 -0.19026911 C97.51828426 -0.18975878 101.29648212 -0.19548037 105.07488632 -0.21662521 C108.62904839 -0.23597114 112.18270137 -0.23615769 115.73688126 -0.22159195 C117.66365264 -0.21849927 119.59042386 -0.23520629 121.51712036 -0.25247192 C123.23752029 -0.23988846 123.23752029 -0.23988846 124.99267578 -0.22705078 C126.48761472 -0.22868508 126.48761472 -0.22868508 128.01275444 -0.2303524 C131.37675045 0.41108792 132.58453518 1.55608845 134.62332153 4.26742554 C134.62332153 7.82992554 134.62332153 7.82992554 133.62332153 11.26742554 C130.57864459 14.26114179 128.32120422 14.64572118 124.12675476 14.66183472 C122.45072174 14.67885941 122.45072174 14.67885941 120.74082947 14.69622803 C119.51941757 14.69329742 118.29800568 14.69036682 117.0395813 14.68734741 C115.74980377 14.69581696 114.46002625 14.7042865 113.13116455 14.7130127 C109.59599685 14.73522806 106.06106224 14.73815942 102.52583432 14.73626518 C99.5735139 14.73614549 96.62124287 14.74470922 93.66893619 14.7530427 C86.70342109 14.77227668 79.73802584 14.77516057 72.77249146 14.7684021 C65.58890282 14.76176029 58.40582754 14.78463078 51.22234303 14.82171583 C45.05235381 14.85241178 38.88252975 14.86377303 32.7124657 14.85987902 C29.02840935 14.85781144 25.3447525 14.86329133 21.66076851 14.88777161 C17.55231865 14.91417082 13.44495296 14.90031192 9.3364563 14.88265991 C8.11706863 14.89592316 6.89768097 14.9091864 5.64134216 14.92285156 C-3.53346323 14.83104577 -3.53346323 14.83104577 -6.67515564 11.95944214 C-8.37667847 9.26742554 -8.37667847 9.26742554 -8.31417847 5.57992554 C-6.80710675 0.25493879 -5.17594608 0.01742007 0 0 Z " fill="#275567" transform="translate(107.37667846679688,268.7325744628906)"/>
<path d="M0 0 C1.28992355 -0.00861557 2.57984711 -0.01723114 3.90885925 -0.02610779 C7.43991281 -0.04858211 10.97051774 -0.04566715 14.50161552 -0.03678632 C17.45151062 -0.03167153 20.40132177 -0.03897284 23.35120821 -0.04625839 C30.31054828 -0.06325072 37.26966904 -0.0596979 44.22900391 -0.04296875 C51.40524789 -0.02604114 58.58088388 -0.04189165 65.75706148 -0.07419163 C71.92284025 -0.10089092 78.08842978 -0.10816289 84.25426054 -0.09967655 C87.93492855 -0.09474904 91.61523063 -0.09695303 95.29585266 -0.11746407 C99.39944408 -0.13923837 103.50188283 -0.12041915 107.60546875 -0.09765625 C109.43219368 -0.11519455 109.43219368 -0.11519455 111.29582214 -0.13308716 C120.4558862 -0.02947762 120.4558862 -0.02947762 123.56115723 2.91273499 C125.30273438 5.53344727 125.30273438 5.53344727 125.86523438 8.09594727 C125.11609346 11.34222454 123.87342729 12.44515188 121.30273438 14.53344727 C118.71337128 15.03681183 118.71337128 15.03681183 115.72351074 15.04138184 C114.58788193 15.05266113 113.45225311 15.06394043 112.2822113 15.07556152 C111.04052689 15.0674646 109.79884247 15.05936768 108.51953125 15.05102539 C106.55319481 15.06153931 106.55319481 15.06153931 104.5471344 15.07226562 C100.95409157 15.09049777 97.36150826 15.08343227 93.76845741 15.07074928 C90.0080199 15.06062089 86.24762168 15.0700145 82.48718262 15.07629395 C76.17221005 15.08357085 69.85742462 15.07398165 63.54248047 15.05493164 C56.24190954 15.03316264 48.94178544 15.040214 41.64122534 15.06223726 C35.37272998 15.08039016 29.10436912 15.08295018 22.83585596 15.07248259 C19.09211052 15.06624698 15.34857509 15.06541366 11.60484314 15.07862854 C7.43160547 15.09233058 3.25913788 15.07333931 -0.9140625 15.05102539 C-2.77658913 15.06317078 -2.77658913 15.06317078 -4.67674255 15.07556152 C-5.81237137 15.06428223 -6.94800018 15.05300293 -8.11804199 15.04138184 C-9.59802296 15.03911968 -9.59802296 15.03911968 -11.10790253 15.03681183 C-14.44042419 14.38897943 -15.62912672 13.17709889 -17.69726562 10.53344727 C-18.25976562 7.53344727 -18.25976562 7.53344727 -17.69726562 4.53344727 C-13.13840194 -1.10541848 -6.62805646 -0.03551758 0 0 Z " fill="#255365" transform="translate(116.697265625,381.466552734375)"/>
<path d="M0 0 C6.6 0 13.2 0 20 0 C20 32.34 20 64.68 20 98 C13.4 98 6.8 98 0 98 C0 65.66 0 33.32 0 0 Z " fill="#268DB7" transform="translate(212,103)"/>
<path d="M0 0 C11.87725447 1.48465681 21.11690064 4.93061967 30 13 C30.67546875 13.57234375 31.3509375 14.1446875 32.046875 14.734375 C39.84141708 21.8038434 45.69531536 31.74531735 48 42 C48 43.98 48 45.96 48 48 C32.16 48 16.32 48 0 48 C0 32.16 0 16.32 0 0 Z " fill="#2FACDF" transform="translate(350,296)"/>
<path d="M0 0 C6.93 0 13.86 0 21 0 C21 21.45 21 42.9 21 65 C14.07 65 7.14 65 0 65 C0 43.55 0 22.1 0 0 Z " fill="#2FA9DA" transform="translate(177,136)"/>
<path d="M0 0 C6.6 0 13.2 0 20 0 C20 12.54 20 25.08 20 38 C13.4 38 6.8 38 0 38 C0 25.46 0 12.92 0 0 Z " fill="#2FACDE" transform="translate(246,163)"/>
<path d="M0 0 C12.87 0 25.74 0 39 0 C36.72188103 10.25153535 34.58935371 18.76330786 28 27 C24.00746337 25.39600374 21.32549792 22.59822732 18.359375 19.58984375 C17.83232971 19.06234024 17.30528442 18.53483673 16.76226807 17.99134827 C15.65391275 16.87998078 14.54797989 15.76619274 13.44433594 14.65014648 C11.74729143 12.93476216 10.04229672 11.22759829 8.3359375 9.52148438 C7.25994197 8.44057649 6.18440473 7.35921217 5.109375 6.27734375 C4.59695251 5.76380844 4.08453003 5.25027313 3.55657959 4.72117615 C0 1.11606989 0 1.11606989 0 0 Z " fill="#DE624E" transform="translate(360,358)"/>
<path d="M0 0 C2.41056098 2.30956955 2.96468358 3.72226635 3.38818359 7.05273438 C3.39156738 8.22126953 3.39495117 9.38980469 3.3984375 10.59375 C3.40230469 11.87121094 3.40617187 13.14867187 3.41015625 14.46484375 C3.40387207 15.12726074 3.39758789 15.78967773 3.39111328 16.47216797 C3.37504886 18.49385089 3.39097765 20.51353513 3.41015625 22.53515625 C3.40628906 23.81261719 3.40242188 25.09007812 3.3984375 26.40625 C3.39505371 27.57478516 3.39166992 28.74332031 3.38818359 29.94726562 C2.96468358 33.27773365 2.41056098 34.69043045 0 37 C-3.8446991 37.55922896 -6.01055032 37.73171613 -9.18945312 35.38085938 C-11.57184259 32.24803008 -11.51615017 30.31710713 -11.53125 26.40625 C-11.53640625 25.12878906 -11.5415625 23.85132813 -11.546875 22.53515625 C-11.53849609 21.87273926 -11.53011719 21.21032227 -11.52148438 20.52783203 C-11.5000595 18.50561552 -11.52129739 16.48695039 -11.546875 14.46484375 C-11.54171875 13.18738281 -11.5365625 11.90992188 -11.53125 10.59375 C-11.52673828 9.42521484 -11.52222656 8.25667969 -11.51757812 7.05273438 C-10.38936955 0.39843249 -6.2433342 -0.90812134 0 0 Z " fill="#215063" transform="translate(455,208)"/>
</svg>
